<svg xmlns="http://www.w3.org/2000/svg" xmlns:xlink="http://www.w3.org/1999/xlink" version="1.1" id="Layer_1" x="0px" y="0px" width="512px" height="512px" viewBox="0 0 512 512" xml:space="preserve" enable-background="new 0 0 512 512"><path d="M147.4 451.9c0.4 0.2 0.7 0.5 1.1 0.7 10.9 6 22.5 10.7 34.4 14.8 1.8 0.6 3.6 1.2 5.4 1.8 21.4 6.8 44 10.9 67.7 10.9 123.7 0 224-100.3 224-224 0-84.3-46.6-157.7-115.5-195.9 -0.4-0.2-0.7-0.4-1-0.6 -10.9-6-22.5-10.7-34.4-14.8 -1.8-0.6-3.6-1.2-5.4-1.8C302.3 36.1 279.6 32 256 32 132.3 32 32 132.3 32 256 32 340.3 78.6 413.6 147.4 451.9zM118.2 156.6l54.4 54.4 36.3-40.5 -52.4-52.4c28-20.2 62.1-32.6 99.4-32.6 9.3 0 18.3 0.9 27.2 2.4 9.8 1.6 19.3 4.1 28.5 7.3 1.8 0.6 3.7 1.2 5.6 1.9 6.2 2.4 12.2 5 18 8.1 54.2 28.5 91.2 85.3 91.2 150.8 0 37.2-12.4 71.3-32.7 99.4l-54.4-54.4L303 341.4l52.4 52.4c-28 20.3-62.2 32.7-99.4 32.7 -9.3 0-18.4-0.9-27.2-2.4 -9.8-1.6-19.3-4.1-28.5-7.3 -1.9-0.6-3.8-1.2-5.6-1.9 -6.5-2.5-12.9-5.3-19-8.6 -53.6-28.7-90.1-85.2-90.1-150.3C85.6 218.8 98 184.7 118.2 156.6z"/><polygon points="209.7,389.8 348.9,235 263.6,235 302.2,122.2 163.1,277 248.4,277  "/></svg>