<?xml version="1.0" encoding="UTF-8" standalone="no"?>
<!-- Generator: Adobe Illustrator 16.2.1, SVG Export Plug-In . SVG Version: 6.00 Build 0)  -->

<svg
   xmlns:dc="http://purl.org/dc/elements/1.1/"
   xmlns:cc="http://creativecommons.org/ns#"
   xmlns:rdf="http://www.w3.org/1999/02/22-rdf-syntax-ns#"
   xmlns:svg="http://www.w3.org/2000/svg"
   xmlns="http://www.w3.org/2000/svg"
   xmlns:sodipodi="http://sodipodi.sourceforge.net/DTD/sodipodi-0.dtd"
   xmlns:inkscape="http://www.inkscape.org/namespaces/inkscape"
   version="1.1"
   id="Layer_1"
   x="0px"
   y="0px"
   width="512px"
   height="512px"
   viewBox="0 0 512 512"
   style="enable-background:new 0 0 512 512;"
   xml:space="preserve"
   inkscape:version="0.48.5 r10040"
   sodipodi:docname="flash-off.svg"><metadata
   id="metadata3009"><rdf:RDF><cc:Work
       rdf:about=""><dc:format>image/svg+xml</dc:format><dc:type
         rdf:resource="http://purl.org/dc/dcmitype/StillImage" /></cc:Work></rdf:RDF></metadata><defs
   id="defs3007" /><sodipodi:namedview
   pagecolor="#ffffff"
   bordercolor="#666666"
   borderopacity="1"
   objecttolerance="10"
   gridtolerance="10"
   guidetolerance="10"
   inkscape:pageopacity="0"
   inkscape:pageshadow="2"
   inkscape:window-width="1920"
   inkscape:window-height="1017"
   id="namedview3005"
   showgrid="false"
   inkscape:zoom="0.4609375"
   inkscape:cx="256"
   inkscape:cy="256"
   inkscape:window-x="-8"
   inkscape:window-y="-8"
   inkscape:window-maximized="1"
   inkscape:current-layer="g2999" />
<g
   id="g2999">
	<path
   d="M 256 32 C 132.3 32 32 132.3 32 256 C 32 340.3 78.60625 413.60625 147.40625 451.90625 C 147.80625 452.10625 148.1 452.39375 148.5 452.59375 C 159.4 458.59375 171.00625 463.30625 182.90625 467.40625 L 188.3125 469.1875 C 209.7125 475.9875 232.3 480.09375 256 480.09375 C 379.7 480.09375 480 379.79375 480 256.09375 C 480 171.79375 433.4 98.3875 364.5 60.1875 C 364.1 59.9875 363.8 59.79375 363.5 59.59375 C 352.6 53.59375 340.99375 48.9125 329.09375 44.8125 L 323.6875 43 C 302.2875 36.1 279.6 32 256 32 z M 255.90625 85.5 C 265.20625 85.5 274.19375 86.40625 283.09375 87.90625 C 292.89375 89.50625 302.39375 91.9875 311.59375 95.1875 C 313.39375 95.7875 315.2875 96.39375 317.1875 97.09375 C 323.3875 99.49375 329.3875 102.0875 335.1875 105.1875 C 389.3875 133.6875 426.40625 190.5 426.40625 256 C 426.40625 293.2 413.9875 327.30625 393.6875 355.40625 L 339.3125 301 L 303 341.40625 L 355.40625 393.8125 C 327.40625 414.1125 293.2 426.5 256 426.5 C 246.7 426.5 237.6125 425.59375 228.8125 424.09375 C 219.0125 422.49375 209.5125 420.0125 200.3125 416.8125 C 198.4125 416.2125 196.4875 415.60625 194.6875 414.90625 C 188.1875 412.40625 181.7875 409.6125 175.6875 406.3125 C 122.0875 377.6125 85.59375 321.1 85.59375 256 C 85.59375 218.8 97.9875 184.69375 118.1875 156.59375 L 172.59375 211 L 208.90625 170.5 L 156.5 118.09375 C 184.5 97.89375 218.60625 85.5 255.90625 85.5 z M 302.1875 122.1875 L 163.09375 277 L 248.40625 277 L 209.6875 389.8125 L 348.90625 235 L 263.59375 235 L 302.1875 122.1875 z "
   id="path3001" />
	
</g>
</svg>